<svg width="750" height="537" viewBox="0 0 750 537" fill="none" xmlns="http://www.w3.org/2000/svg">
<path d="M699.63 469.13C716.35 469.13 729.73 462.677 739.77 449.77C744.311 444.02 747.706 437.451 749.77 430.42H736.9C735.212 435.295 732.635 439.814 729.3 443.75C721.473 452.55 711.583 456.947 699.63 456.94C688.057 456.94 678.593 453.167 671.24 445.62C663.887 438.073 660.207 428.22 660.2 416.06C660.2 403.933 663.867 394.09 671.2 386.53C678.533 378.97 687.997 375.197 699.59 375.21C711.343 375.21 721.01 379.27 728.59 387.39C731.801 390.988 734.369 395.111 736.18 399.58H749.09C747.203 392.932 743.985 386.736 739.63 381.37C729.877 369.163 716.543 363.06 699.63 363.06C684.53 363.06 672.033 368.06 662.14 378.06C652.247 388.06 647.3 400.727 647.3 416.06C647.3 431.453 652.247 444.143 662.14 454.13C672.033 464.117 684.53 469.117 699.63 469.13ZM622.21 466.26V365.91H609.31V466.26H622.21ZM541.93 378.06V466.26H554.83V378.06H589.24V365.91H507.53V378.06H541.93ZM443.01 469.06C459.743 469.06 473.127 462.607 483.16 449.7C487.701 443.95 491.096 437.381 493.16 430.35H480.26C478.568 435.223 475.991 439.742 472.66 443.68C464.82 452.48 454.927 456.877 442.98 456.87C431.42 456.87 421.96 453.097 414.6 445.55C407.24 438.003 403.573 428.157 403.6 416.01C403.6 403.883 407.267 394.04 414.6 386.48C421.933 378.92 431.4 375.17 443 375.23C454.76 375.23 464.427 379.29 472 387.41C475.215 391.007 477.785 395.13 479.6 399.6H492.5C490.605 392.947 487.372 386.751 483 381.39C473.26 369.17 459.927 363.06 443 363.06C427.9 363.06 415.407 368.06 405.52 378.06C395.633 388.06 390.69 400.727 390.69 416.06C390.69 431.453 395.637 444.143 405.53 454.13C415.423 464.117 427.913 469.117 443 469.13L443.01 469.06ZM371.34 466.19V454.06H314V421.82H360.59V409.63H314V378.06H371.35V365.91H301.09V466.26L371.34 466.19ZM281.74 466.19V454.06H229.41V365.91H216.51V466.26L281.74 466.19ZM142 469.13C158.733 469.13 172.113 462.677 182.14 449.77C186.681 444.019 190.075 437.45 192.14 430.42H179.24C177.544 435.291 174.968 439.809 171.64 443.75C163.8 452.55 153.907 456.947 141.96 456.94C130.4 456.94 120.94 453.167 113.58 445.62C106.22 438.073 102.553 428.227 102.58 416.08C102.58 403.953 106.247 394.11 113.58 386.55C120.913 378.99 130.387 375.217 142 375.23C153.76 375.23 163.427 379.29 171 387.41C174.215 391.007 176.786 395.13 178.6 399.6H191.5C189.601 392.949 186.369 386.753 182 381.39C172.227 369.17 158.893 363.06 142 363.06C126.9 363.06 114.403 368.06 104.51 378.06C94.6167 388.06 89.66 400.727 89.64 416.06C89.64 431.453 94.5833 444.143 104.47 454.13C114.357 464.117 126.867 469.117 142 469.13ZM70.32 466.26V454.06H12.94V421.82H59.53V409.63H12.94V378.06H70.28V365.91H0V466.26H70.32Z" fill="black"/>
<path d="M566.08 505.48H576.53C579.28 505.48 581.36 506.1 582.77 507.36C584.125 508.798 584.88 510.699 584.88 512.675C584.88 514.651 584.125 516.552 582.77 517.99C581.357 519.244 579.277 519.87 576.53 519.87H566.08V505.48ZM566.08 535.19V522.65H576.08L584.21 535.19H587.69L579.33 522.42C581.778 522.139 584.036 520.964 585.67 519.12C587.186 517.319 587.986 515.023 587.92 512.67C587.975 511.321 587.735 509.976 587.217 508.729C586.699 507.482 585.915 506.363 584.92 505.45C582.92 503.61 580.144 502.69 576.59 502.69H563.06V535.19H566.08ZM537.53 504.55C539.359 504.492 541.179 504.818 542.874 505.507C544.569 506.196 546.101 507.233 547.37 508.55C549.861 511.443 551.23 515.133 551.23 518.95C551.23 522.767 549.861 526.458 547.37 529.35C544.734 531.909 541.204 533.34 537.53 533.34C533.856 533.34 530.327 531.909 527.69 529.35C525.211 526.452 523.849 522.764 523.849 518.95C523.849 515.137 525.211 511.448 527.69 508.55C528.96 507.233 530.491 506.196 532.186 505.507C533.881 504.818 535.702 504.492 537.53 504.55V504.55ZM537.53 536.12C539.749 536.179 541.955 535.775 544.008 534.935C546.062 534.095 547.919 532.836 549.46 531.24C552.534 527.881 554.239 523.493 554.239 518.94C554.239 514.387 552.534 509.999 549.46 506.64C546.28 503.507 541.995 501.751 537.53 501.751C533.066 501.751 528.781 503.507 525.6 506.64C522.527 509.999 520.822 514.387 520.822 518.94C520.822 523.493 522.527 527.881 525.6 531.24C527.142 532.836 528.998 534.095 531.052 534.935C533.106 535.775 535.312 536.179 537.53 536.12V536.12ZM498.07 536.12C500.541 536.193 502.993 535.675 505.223 534.609C507.453 533.542 509.396 531.959 510.89 529.99C512.345 528.155 513.431 526.057 514.09 523.81H511.09C510.487 525.552 509.576 527.171 508.4 528.59C507.159 530.116 505.584 531.337 503.796 532.159C502.009 532.981 500.057 533.381 498.09 533.33C496.262 533.388 494.441 533.062 492.746 532.373C491.051 531.684 489.52 530.648 488.25 529.33C485.771 526.432 484.409 522.744 484.409 518.93C484.409 515.117 485.771 511.428 488.25 508.53C489.582 507.227 491.16 506.202 492.892 505.517C494.624 504.831 496.476 504.498 498.339 504.537C500.201 504.576 502.037 504.986 503.739 505.744C505.441 506.502 506.975 507.592 508.25 508.95C509.396 510.246 510.294 511.741 510.9 513.36H513.9C513.247 511.245 512.191 509.275 510.79 507.56C509.263 505.685 507.325 504.187 505.127 503.179C502.928 502.172 500.528 501.683 498.11 501.75C495.892 501.692 493.686 502.096 491.632 502.936C489.578 503.776 487.722 505.034 486.18 506.63C483.107 509.989 481.402 514.377 481.402 518.93C481.402 523.483 483.107 527.871 486.18 531.23C487.716 532.823 489.566 534.08 491.613 534.922C493.659 535.764 495.858 536.172 498.07 536.12V536.12ZM474.63 535.19V532.4H455.63V520.06H471.18V517.27H455.6V505.48H474.6V502.69H452.6V535.19H474.63ZM419.85 505.48H427.05C428.867 505.407 430.68 505.702 432.38 506.349C434.08 506.995 435.631 507.978 436.94 509.24C439.383 511.88 440.74 515.344 440.74 518.94C440.74 522.537 439.383 526.001 436.94 528.64C435.631 529.902 434.08 530.886 432.38 531.532C430.68 532.178 428.867 532.474 427.05 532.4H419.85V505.48ZM427.05 535.19C429.258 535.267 431.459 534.898 433.521 534.104C435.583 533.31 437.464 532.108 439.05 530.57C442.072 527.453 443.762 523.282 443.762 518.94C443.762 514.599 442.072 510.428 439.05 507.31C437.464 505.772 435.583 504.571 433.521 503.777C431.459 502.983 429.258 502.613 427.05 502.69H416.84V535.19H427.05ZM375.29 515.69C376.401 515.669 377.504 515.882 378.527 516.314C379.55 516.747 380.471 517.389 381.23 518.2C382.781 519.936 383.639 522.182 383.639 524.51C383.639 526.838 382.781 529.084 381.23 530.82C380.459 531.615 379.535 532.247 378.515 532.678C377.495 533.11 376.398 533.332 375.29 533.332C374.182 533.332 373.086 533.11 372.066 532.678C371.045 532.247 370.122 531.615 369.35 530.82C367.793 529.087 366.931 526.84 366.931 524.51C366.931 522.181 367.793 519.933 369.35 518.2C370.109 517.389 371.03 516.747 372.054 516.314C373.077 515.882 374.18 515.669 375.29 515.69V515.69ZM375.29 536.12C376.725 536.165 378.153 535.922 379.493 535.407C380.832 534.892 382.055 534.114 383.09 533.12C384.095 532.165 384.891 531.011 385.426 529.732C385.962 528.453 386.225 527.077 386.2 525.69V525.69L386.48 526.15L392.42 535.21H396L376.5 505.54H391.12V502.75H373V505.54L378.06 513.2L378.34 513.61C378.018 513.539 377.705 513.428 377.41 513.28C376.659 513.046 375.877 512.921 375.09 512.91C373.587 512.886 372.095 513.173 370.708 513.753C369.321 514.333 368.069 515.193 367.03 516.28C365.948 517.358 365.096 518.644 364.526 520.06C363.955 521.476 363.678 522.994 363.71 524.52C363.697 526.049 363.988 527.564 364.567 528.979C365.146 530.394 366 531.679 367.081 532.759C368.162 533.84 369.447 534.695 370.862 535.274C372.276 535.852 373.792 536.144 375.32 536.13L375.29 536.12ZM318.42 535.19V506.19L318.37 505.73H318.42L336.06 535.21H340.7V502.71H337.7V531.71V532.17L320.06 502.69H315.4V535.19H318.42ZM288.02 536.12C292.033 536.244 295.933 534.786 298.88 532.06C301.861 529.198 303.762 525.393 304.26 521.29H308.44V518.5H294.75V521.29H301.25C300.945 524.586 299.431 527.653 297 529.9C294.575 532.197 291.34 533.441 288 533.36C286.17 533.419 284.348 533.093 282.651 532.404C280.955 531.715 279.421 530.678 278.15 529.36C275.671 526.462 274.309 522.774 274.309 518.96C274.309 515.147 275.671 511.458 278.15 508.56C279.473 507.27 281.037 506.255 282.754 505.572C284.47 504.89 286.305 504.554 288.152 504.583C289.999 504.613 291.822 505.008 293.516 505.746C295.209 506.483 296.74 507.548 298.02 508.88C299.17 510.141 300.097 511.588 300.76 513.16H303.76C303.043 511.093 301.959 509.173 300.56 507.49C299.053 505.628 297.134 504.141 294.955 503.146C292.775 502.152 290.395 501.678 288 501.76C285.781 501.704 283.574 502.108 281.518 502.948C279.463 503.788 277.605 505.045 276.06 506.64C272.987 509.999 271.282 514.387 271.282 518.94C271.282 523.493 272.987 527.881 276.06 531.24C277.605 532.835 279.463 534.093 281.518 534.932C283.574 535.772 285.781 536.177 288 536.12H288.02ZM262.48 535.19V502.69H259.48V535.19H262.48ZM227.9 531.38C230.374 534.54 233.934 536.12 238.58 536.12C242.26 536.12 245.19 535.214 247.37 533.4C248.386 532.632 249.211 531.639 249.779 530.499C250.348 529.36 250.646 528.104 250.65 526.83C250.667 525.796 250.451 524.771 250.02 523.83C249.654 523.007 249.151 522.253 248.53 521.6C247.826 520.917 247.02 520.347 246.14 519.91C245.263 519.436 244.358 519.015 243.43 518.65C242.64 518.36 241.61 518.01 240.34 517.65C238.304 517.099 236.301 516.431 234.34 515.65C231.46 514.417 230.02 512.73 230.02 510.59C230.017 509.759 230.208 508.938 230.577 508.193C230.947 507.448 231.486 506.8 232.15 506.3C233.888 505.042 236.009 504.427 238.15 504.56C239.553 504.479 240.958 504.697 242.27 505.201C243.582 505.704 244.772 506.481 245.76 507.48C246.53 508.302 247.104 509.286 247.44 510.36H250.44C250.061 508.794 249.333 507.335 248.31 506.09C245.92 503.21 242.54 501.77 238.14 501.77C235.221 501.633 232.351 502.556 230.06 504.37C229.112 505.107 228.344 506.05 227.814 507.128C227.283 508.205 227.005 509.389 227 510.59C226.982 511.622 227.186 512.645 227.6 513.59C227.962 514.42 228.474 515.176 229.11 515.82C229.822 516.484 230.628 517.039 231.5 517.47C232.389 517.933 233.304 518.344 234.24 518.7C235.08 519.01 236.11 519.33 237.35 519.7L239.02 520.23L240.74 520.76C241.05 520.86 241.56 521.03 242.27 521.3C242.785 521.479 243.289 521.686 243.78 521.92C244.08 522.08 244.49 522.3 245.01 522.6C245.433 522.812 245.819 523.093 246.15 523.43C246.38 523.7 246.64 524.01 246.92 524.43C247.18 524.78 247.377 525.173 247.5 525.59C247.768 526.695 247.703 527.854 247.313 528.922C246.923 529.989 246.227 530.918 245.31 531.59C243.75 532.83 241.51 533.45 238.61 533.45C237.113 533.517 235.62 533.253 234.237 532.675C232.854 532.098 231.615 531.222 230.61 530.11C229.729 529.13 229.064 527.975 228.66 526.72H225.66C226.099 528.404 226.859 529.986 227.9 531.38V531.38ZM219.08 535.19V532.4H200.08V520.06H215.6V517.27H200.05V505.48H219.05V502.69H197V535.19H219.08ZM164.3 505.48H171.5C173.316 505.406 175.128 505.701 176.826 506.347C178.524 506.994 180.073 507.978 181.38 509.24C183.83 511.876 185.191 515.342 185.191 518.94C185.191 522.539 183.83 526.004 181.38 528.64C180.073 529.903 178.524 530.887 176.826 531.533C175.128 532.18 173.316 532.475 171.5 532.4H164.3V505.48ZM171.5 535.19C173.708 535.267 175.909 534.898 177.971 534.104C180.033 533.31 181.914 532.108 183.5 530.57C186.522 527.453 188.212 523.282 188.212 518.94C188.212 514.599 186.522 510.428 183.5 507.31C181.914 505.772 180.033 504.571 177.971 503.777C175.909 502.983 173.708 502.613 171.5 502.69H161.28V535.19H171.5Z" fill="black"/>
<path d="M392.51 162.34V319.11H478.09V211.9L392.51 162.34Z" fill="#718138"/>
<path d="M292.11 29.43L398.17 0V163.18L290.39 189.84L292.11 29.43Z" fill="#718138"/>
<path d="M480.11 78.8602L397.771 29.4302L393.73 36.1602L476.07 85.5902" fill="black"/>
<path d="M439.21 32.1602V319.11H447.06V32.1602" fill="black"/>
<path d="M445.06 259.48L404.53 236.6V317.15H412.38V250.04L441.2 266.31L445.06 259.48Z" fill="black"/>
<path d="M242.69 104.69V319.11H250.54V104.69" fill="black"/>
<path d="M220.14 215.68L393.58 166.96L391.45 159.4L218.01 208.12" fill="black"/>
<path d="M180.24 323.04H571.04V315.19H180.24" fill="black"/>
<path d="M482.02 208.31L397.83 160.7V29.4302L274.28 63.6202L276.37 71.1802L389.98 39.7402V156.26V165.28L406.84 174.81L474.17 212.89V317.15H482.02V208.31Z" fill="black"/>
</svg>
